<svg width="16" height="16" viewBox="0 0 16 16" fill="none" xmlns="http://www.w3.org/2000/svg">
<path d="M7.005 3.09987C6.99104 2.96083 7.00638 2.8204 7.05003 2.68765C7.09368 2.5549 7.16467 2.43276 7.25842 2.32913C7.35217 2.2255 7.4666 2.14267 7.59433 2.08598C7.72206 2.02929 7.86026 2 8 2C8.13974 2 8.27794 2.02929 8.40567 2.08598C8.5334 2.14267 8.64783 2.2255 8.74158 2.32913C8.83533 2.43276 8.90632 2.5549 8.94997 2.68765C8.99362 2.8204 9.00896 2.96083 8.995 3.09987L8.607 9.44987C8.59201 9.60045 8.52159 9.74008 8.40942 9.84165C8.29724 9.94321 8.15132 9.99945 8 9.99945C7.84868 9.99945 7.70276 9.94321 7.59058 9.84165C7.47841 9.74008 7.40799 9.60045 7.393 9.44987L7.005 3.09987ZM7 11.9999C7 11.7347 7.10536 11.4803 7.29289 11.2928C7.48043 11.1052 7.73478 10.9999 8 10.9999C8.26522 10.9999 8.51957 11.1052 8.70711 11.2928C8.89464 11.4803 9 11.7347 9 11.9999C9 12.2651 8.89464 12.5194 8.70711 12.707C8.51957 12.8945 8.26522 12.9999 8 12.9999C7.73478 12.9999 7.48043 12.8945 7.29289 12.707C7.10536 12.5194 7 12.2651 7 11.9999Z" fill="#C40000"/>
</svg>
